<?xml version="1.0" encoding="UTF-8" standalone="no"?>
<!-- Created with Inkscape (http://www.inkscape.org/) -->

<svg
   version="1.1"
   id="svg1"
   width="631.34668"
   height="256.70667"
   viewBox="0 0 631.34668 256.70667"
   sodipodi:docname="IFoA logo - gold &amp; blue - CMYK.eps"
   xmlns:inkscape="http://www.inkscape.org/namespaces/inkscape"
   xmlns:sodipodi="http://sodipodi.sourceforge.net/DTD/sodipodi-0.dtd"
   xmlns="http://www.w3.org/2000/svg"
   xmlns:svg="http://www.w3.org/2000/svg">
  <defs
     id="defs1" />
  <sodipodi:namedview
     id="namedview1"
     pagecolor="#ffffff"
     bordercolor="#000000"
     borderopacity="0.25"
     inkscape:showpageshadow="2"
     inkscape:pageopacity="0.0"
     inkscape:pagecheckerboard="0"
     inkscape:deskcolor="#d1d1d1">
    <inkscape:page
       x="0"
       y="0"
       inkscape:label="1"
       id="page1"
       width="631.34668"
       height="256.70667"
       margin="0"
       bleed="0" />
  </sodipodi:namedview>
  <g
     id="g1"
     inkscape:groupmode="layer"
     inkscape:label="1">
    <g
       id="group-R5">
      <path
         id="path2"
         d="m 2300.17,1436.44 h 34.2 v -303.03 h -34.2 v 303.03"
         style="fill:#0a264a;fill-opacity:1;fill-rule:nonzero;stroke:none"
         transform="matrix(0.13333333,0,0,-0.13333333,0,256.70667)" />
      <path
         id="path3"
         d="m 2399.75,1357.22 h 33.34 v -38.96 c 14.72,24.24 38.09,43.72 76.62,43.72 54.11,0 85.71,-36.36 85.71,-89.6 v -138.97 h -33.34 v 130.73 c 0,41.56 -22.5,67.54 -61.9,67.54 -38.52,0 -67.09,-28.14 -67.09,-70.13 v -128.14 h -33.34 v 223.81"
         style="fill:#0a264a;fill-opacity:1;fill-rule:nonzero;stroke:none"
         transform="matrix(0.13333333,0,0,-0.13333333,0,256.70667)" />
      <path
         id="path4"
         d="m 2638.75,1161.98 16.88,23.81 c 24.24,-18.18 51.08,-28.57 77.49,-28.57 26.84,0 46.32,13.85 46.32,35.5 v 0.87 c 0,22.5 -26.41,31.16 -55.85,39.39 -35.06,9.96 -74.02,22.07 -74.02,63.2 v 0.87 c 0,38.52 32.04,64.06 76.19,64.06 27.27,0 57.57,-9.52 80.51,-24.67 l -15.14,-25.1 c -20.78,13.41 -44.59,21.64 -66.24,21.64 -26.41,0 -43.28,-13.85 -43.28,-32.47 v -0.87 c 0,-21.21 27.7,-29.43 57.56,-38.52 34.64,-10.39 71.87,-23.81 71.87,-64.07 v -0.87 c 0,-42.42 -35.07,-67.09 -79.66,-67.09 -32.03,0 -67.53,12.55 -92.63,32.89"
         style="fill:#0a264a;fill-opacity:1;fill-rule:nonzero;stroke:none"
         transform="matrix(0.13333333,0,0,-0.13333333,0,256.70667)" />
      <path
         id="path5"
         d="m 2871.25,1192.72 v 135.07 h -31.18 v 29.43 h 31.18 v 67.53 h 33.33 v -67.53 h 70.99 v -29.43 h -70.99 v -130.74 c 0,-27.27 15.15,-37.23 37.66,-37.23 11.25,0 20.78,2.16 32.47,7.79 v -28.57 c -11.69,-6.06 -24.25,-9.52 -40.26,-9.52 -35.93,0 -63.2,17.75 -63.2,63.2"
         style="fill:#0a264a;fill-opacity:1;fill-rule:nonzero;stroke:none"
         transform="matrix(0.13333333,0,0,-0.13333333,0,256.70667)" />
      <path
         id="path6"
         d="m 3028.42,1357.22 h 33.33 v -223.81 h -33.33 z m -2.17,85.71 h 38.1 v -36.79 h -38.1 v 36.79"
         style="fill:#0a264a;fill-opacity:1;fill-rule:nonzero;stroke:none"
         transform="matrix(0.13333333,0,0,-0.13333333,0,256.70667)" />
      <path
         id="path7"
         d="m 3141.85,1192.72 v 135.07 h -31.17 v 29.43 h 31.17 v 67.53 h 33.33 v -67.53 h 71 v -29.43 h -71 v -130.74 c 0,-27.27 15.16,-37.23 37.67,-37.23 11.25,0 20.78,2.16 32.47,7.79 v -28.57 c -11.69,-6.06 -24.25,-9.52 -40.27,-9.52 -35.92,0 -63.2,17.75 -63.2,63.2"
         style="fill:#0a264a;fill-opacity:1;fill-rule:nonzero;stroke:none"
         transform="matrix(0.13333333,0,0,-0.13333333,0,256.70667)" />
      <path
         id="path8"
         d="m 3292.52,1218.26 v 138.96 h 33.33 v -130.74 c 0,-41.55 22.51,-67.52 61.91,-67.52 38.09,0 67.1,28.13 67.1,70.12 v 128.14 h 32.9 v -223.81 h -32.9 v 38.97 c -15.16,-24.25 -38.1,-43.73 -76.62,-43.73 -54.11,0 -85.72,36.37 -85.72,89.61"
         style="fill:#0a264a;fill-opacity:1;fill-rule:nonzero;stroke:none"
         transform="matrix(0.13333333,0,0,-0.13333333,0,256.70667)" />
      <path
         id="path9"
         d="m 3565.29,1192.72 v 135.07 h -31.17 v 29.43 h 31.17 v 67.53 h 33.33 v -67.53 h 70.99 v -29.43 h -70.99 v -130.74 c 0,-27.27 15.15,-37.23 37.66,-37.23 11.25,0 20.79,2.16 32.47,7.79 v -28.57 c -11.68,-6.06 -24.24,-9.52 -40.26,-9.52 -35.93,0 -63.2,17.75 -63.2,63.2"
         style="fill:#0a264a;fill-opacity:1;fill-rule:nonzero;stroke:none"
         transform="matrix(0.13333333,0,0,-0.13333333,0,256.70667)" />
      <path
         id="path10"
         d="m 3877,1257.65 c -3.47,40.7 -26.85,76.19 -71.44,76.19 -38.95,0 -68.39,-32.46 -72.72,-76.19 z m -177.92,-12.98 v 0.86 c 0,64.51 45.45,116.45 107.35,116.45 66.23,0 104.33,-52.81 104.33,-118.18 0,-4.33 0,-6.92 -0.43,-10.82 h -177.49 c 4.76,-48.48 38.96,-75.76 78.79,-75.76 30.73,0 52.38,12.56 70.56,31.6 l 20.77,-18.61 c -22.51,-25.1 -49.77,-41.99 -92.2,-41.99 -61.47,0 -111.68,47.19 -111.68,116.45"
         style="fill:#0a264a;fill-opacity:1;fill-rule:nonzero;stroke:none"
         transform="matrix(0.13333333,0,0,-0.13333333,0,256.70667)" />
      <path
         id="path11"
         d="m 2439.56,742.859 v 21.653 c -16.45,4.758 -38.53,9.519 -65.8,9.519 -41.99,0 -65.37,-18.179 -65.37,-46.32 v -0.871 c 0,-28.129 25.98,-44.578 56.28,-44.578 41.13,0 74.89,25.097 74.89,60.597 z m -164.93,-17.32 v 0.871 c 0,47.18 38.96,72.289 95.67,72.289 28.57,0 48.91,-3.89 68.83,-9.519 v 7.789 c 0,40.261 -24.68,61.043 -66.66,61.043 -26.41,0 -47.19,-6.934 -67.97,-16.453 l -9.96,27.273 c 24.67,11.258 48.92,18.617 81.38,18.617 31.6,0 55.85,-8.23 72.3,-24.679 15.14,-15.149 22.94,-36.79 22.94,-65.372 V 660.609 h -32.03 v 33.77 c -15.59,-20.348 -41.56,-38.527 -80.95,-38.527 -41.56,0 -83.55,23.808 -83.55,69.687"
         style="fill:#0a264a;fill-opacity:1;fill-rule:nonzero;stroke:none"
         transform="matrix(0.13333333,0,0,-0.13333333,0,256.70667)" />
      <path
         id="path12"
         d="m 2528.77,884.422 h 33.34 v -38.961 c 14.72,24.238 38.09,43.719 76.63,43.719 54.11,0 85.71,-36.371 85.71,-89.61 V 660.609 h -33.34 V 791.34 c 0,41.558 -22.51,67.531 -61.91,67.531 -38.52,0 -67.09,-28.133 -67.09,-70.121 V 660.609 h -33.34 v 223.813"
         style="fill:#0a264a;fill-opacity:1;fill-rule:nonzero;stroke:none"
         transform="matrix(0.13333333,0,0,-0.13333333,0,256.70667)" />
      <path
         id="path13"
         d="m 2967.33,772.301 v 0.871 c 0,51.508 -39.4,86.137 -80.95,86.137 -43.29,0 -78.79,-32.028 -78.79,-86.137 v -0.871 c 0,-52.821 36.8,-86.582 78.79,-86.582 41.55,0 80.95,35.062 80.95,86.582 z m -193.94,-0.43 v 0.859 c 0,73.161 53.26,116.45 106.93,116.45 41.56,0 68.4,-22.508 85.71,-47.621 v 135.062 h 33.34 V 660.609 h -33.34 v 45.02 c -18.17,-26.84 -44.58,-49.777 -85.71,-49.777 -53.67,0 -106.93,42.418 -106.93,116.019"
         style="fill:#0a264a;fill-opacity:1;fill-rule:nonzero;stroke:none"
         transform="matrix(0.13333333,0,0,-0.13333333,0,256.70667)" />
      <path
         id="path14"
         d="m 3209.4,963.633 h 217.74 V 932.035 H 3243.59 V 823.809 h 164.07 V 792.641 H 3243.59 V 660.609 h -34.19 v 303.024"
         style="fill:#0a264a;fill-opacity:1;fill-rule:nonzero;stroke:none"
         transform="matrix(0.13333333,0,0,-0.13333333,0,256.70667)" />
      <path
         id="path15"
         d="m 3611.59,742.859 v 21.653 c -16.45,4.758 -38.53,9.519 -65.79,9.519 -42,0 -65.38,-18.179 -65.38,-46.32 v -0.871 c 0,-28.129 25.98,-44.578 56.28,-44.578 41.13,0 74.89,25.097 74.89,60.597 z m -164.93,-17.32 v 0.871 c 0,47.18 38.96,72.289 95.67,72.289 28.57,0 48.92,-3.89 68.83,-9.519 v 7.789 c 0,40.261 -24.68,61.043 -66.66,61.043 -26.41,0 -47.19,-6.934 -67.97,-16.453 l -9.96,27.273 c 24.68,11.258 48.92,18.617 81.38,18.617 31.61,0 55.85,-8.23 72.3,-24.679 15.15,-15.149 22.94,-36.79 22.94,-65.372 V 660.609 h -32.03 v 33.77 c -15.59,-20.348 -41.56,-38.527 -80.95,-38.527 -41.56,0 -83.55,23.808 -83.55,69.687"
         style="fill:#0a264a;fill-opacity:1;fill-rule:nonzero;stroke:none"
         transform="matrix(0.13333333,0,0,-0.13333333,0,256.70667)" />
      <path
         id="path16"
         d="m 3686.96,771.43 v 0.871 c 0,63.199 49.34,116.879 114.71,116.879 42.43,0 68.83,-17.75 89.61,-39.828 L 3869.2,825.98 c -17.75,18.61 -37.66,33.758 -67.96,33.758 -45.45,0 -80.08,-38.519 -80.08,-86.566 v -0.871 c 0,-48.492 35.5,-87.02 82.24,-87.02 28.58,0 50.65,14.289 68.4,33.34 l 21.21,-19.91 c -22.51,-25.109 -49.35,-43.289 -91.34,-43.289 -65.37,0 -114.71,53.238 -114.71,116.008"
         style="fill:#0a264a;fill-opacity:1;fill-rule:nonzero;stroke:none"
         transform="matrix(0.13333333,0,0,-0.13333333,0,256.70667)" />
      <path
         id="path17"
         d="m 3935.48,745.461 v 138.961 h 33.33 V 753.68 c 0,-41.559 22.51,-67.532 61.91,-67.532 38.09,0 67.1,28.141 67.1,70.133 v 128.141 h 32.9 V 660.609 h -32.9 v 38.961 c -15.16,-24.238 -38.1,-43.718 -76.62,-43.718 -54.12,0 -85.72,36.359 -85.72,89.609"
         style="fill:#0a264a;fill-opacity:1;fill-rule:nonzero;stroke:none"
         transform="matrix(0.13333333,0,0,-0.13333333,0,256.70667)" />
      <path
         id="path18"
         d="m 4199.58,976.621 h 33.34 V 660.609 h -33.34 v 316.012"
         style="fill:#0a264a;fill-opacity:1;fill-rule:nonzero;stroke:none"
         transform="matrix(0.13333333,0,0,-0.13333333,0,256.70667)" />
      <path
         id="path19"
         d="M 4313.01,719.922 V 854.98 h -31.17 v 29.442 h 31.17 v 67.527 h 33.33 v -67.527 h 71 V 854.98 h -71 V 724.238 c 0,-27.269 15.16,-37.218 37.67,-37.218 11.25,0 20.78,2.16 32.46,7.789 v -28.571 c -11.68,-6.058 -24.24,-9.527 -40.25,-9.527 -35.93,0 -63.21,17.75 -63.21,63.211"
         style="fill:#0a264a;fill-opacity:1;fill-rule:nonzero;stroke:none"
         transform="matrix(0.13333333,0,0,-0.13333333,0,256.70667)" />
      <path
         id="path20"
         d="m 4634.68,884.422 h 35.5 L 4576.25,653.25 c -19.06,-46.32 -40.7,-63.199 -74.47,-63.199 -18.61,0 -32.46,3.898 -47.61,11.25 l 11.25,26.41 c 10.83,-5.621 20.79,-8.223 35.07,-8.223 19.92,0 32.46,10.383 45.88,41.992 l -101.73,222.942 h 36.8 l 81.39,-186.582 71.85,186.582"
         style="fill:#0a264a;fill-opacity:1;fill-rule:nonzero;stroke:none"
         transform="matrix(0.13333333,0,0,-0.13333333,0,256.70667)" />
      <path
         id="path21"
         d="m 2476.79,298.629 v 0.871 c 0,48.051 -35.94,87.441 -83.11,87.441 -48.49,0 -81.82,-39.39 -81.82,-86.57 V 299.5 c 0,-48.051 35.5,-87.012 82.68,-87.012 48.48,0 82.25,38.961 82.25,86.141 z m -199.13,0 v 0.871 c 0,63.199 49.35,116.879 116.88,116.879 67.1,0 116.45,-52.809 116.45,-116.008 V 299.5 c 0,-63.211 -49.78,-116.879 -117.31,-116.879 -67.1,0 -116.02,52.809 -116.02,116.008"
         style="fill:#0a264a;fill-opacity:1;fill-rule:nonzero;stroke:none"
         transform="matrix(0.13333333,0,0,-0.13333333,0,256.70667)" />
      <path
         id="path22"
         d="m 2574.67,382.18 h -30.74 v 29.011 h 30.74 v 19.481 c 0,25.539 6.93,45.008 19.48,57.566 11.26,11.262 27.71,17.321 48.05,17.321 15.59,0 25.98,-1.739 36.8,-5.629 v -29.008 c -12.12,3.469 -21.21,5.629 -32.47,5.629 -25.98,0 -38.96,-15.582 -38.96,-47.621 v -18.18 h 70.99 V 382.18 H 2608 V 187.809 h -33.33 V 382.18"
         style="fill:#0a264a;fill-opacity:1;fill-rule:nonzero;stroke:none"
         transform="matrix(0.13333333,0,0,-0.13333333,0,256.70667)" />
      <path
         id="path23"
         d="M 3053.06,299.07 2984.23,453.172 2914.98,299.07 Z M 2968.65,493 h 32.04 l 138.08,-305.191 h -36.78 l -35.5,80.089 h -164.93 l -35.94,-80.089 h -35.06 L 2968.65,493"
         style="fill:#0a264a;fill-opacity:1;fill-rule:nonzero;stroke:none"
         transform="matrix(0.13333333,0,0,-0.13333333,0,256.70667)" />
      <path
         id="path24"
         d="m 3146.19,298.629 v 0.871 c 0,63.199 49.34,116.879 114.71,116.879 42.43,0 68.83,-17.75 89.61,-39.828 l -22.08,-23.371 c -17.75,18.609 -37.66,33.761 -67.97,33.761 -45.45,0 -80.07,-38.531 -80.07,-86.57 V 299.5 c 0,-48.48 35.49,-87.012 82.24,-87.012 28.58,0 50.65,14.282 68.4,33.332 l 21.21,-19.91 c -22.51,-25.109 -49.34,-43.289 -91.34,-43.289 -65.37,0 -114.71,53.25 -114.71,116.008"
         style="fill:#0a264a;fill-opacity:1;fill-rule:nonzero;stroke:none"
         transform="matrix(0.13333333,0,0,-0.13333333,0,256.70667)" />
      <path
         id="path25"
         d="M 3409.86,247.121 V 382.18 h -31.17 v 29.441 h 31.17 v 67.527 h 33.33 v -67.527 h 70.99 V 382.18 h -70.99 V 251.449 c 0,-27.269 15.15,-37.23 37.66,-37.23 11.25,0 20.79,2.16 32.48,7.793 v -28.571 c -11.69,-6.062 -24.25,-9.519 -40.27,-9.519 -35.93,0 -63.2,17.75 -63.2,63.199"
         style="fill:#0a264a;fill-opacity:1;fill-rule:nonzero;stroke:none"
         transform="matrix(0.13333333,0,0,-0.13333333,0,256.70667)" />
      <path
         id="path26"
         d="m 3560.53,272.66 v 138.961 h 33.33 V 280.879 c 0,-41.547 22.51,-67.52 61.91,-67.52 38.09,0 67.1,28.129 67.1,70.121 v 128.141 h 32.9 V 187.809 h -32.9 v 38.961 c -15.16,-24.239 -38.1,-43.719 -76.62,-43.719 -54.12,0 -85.72,36.371 -85.72,89.609"
         style="fill:#0a264a;fill-opacity:1;fill-rule:nonzero;stroke:none"
         transform="matrix(0.13333333,0,0,-0.13333333,0,256.70667)" />
      <path
         id="path27"
         d="m 3969.65,270.059 v 21.652 c -16.44,4.758 -38.52,9.519 -65.79,9.519 -41.99,0 -65.37,-18.179 -65.37,-46.32 v -0.871 c 0,-28.129 25.98,-44.578 56.28,-44.578 41.12,0 74.88,25.109 74.88,60.598 z M 3804.72,252.75 v 0.859 c 0,47.192 38.97,72.289 95.68,72.289 28.57,0 48.91,-3.886 68.82,-9.519 v 7.801 c 0,40.25 -24.67,61.031 -66.66,61.031 -26.4,0 -47.18,-6.922 -67.97,-16.449 l -9.96,27.277 c 24.68,11.25 48.93,18.609 81.39,18.609 31.6,0 55.85,-8.226 72.3,-24.668 15.14,-15.16 22.93,-36.8 22.93,-65.371 v -136.8 h -32.03 v 33.769 c -15.58,-20.348 -41.55,-38.527 -80.94,-38.527 -41.57,0 -83.56,23.808 -83.56,69.699"
         style="fill:#0a264a;fill-opacity:1;fill-rule:nonzero;stroke:none"
         transform="matrix(0.13333333,0,0,-0.13333333,0,256.70667)" />
      <path
         id="path28"
         d="m 4063.2,411.621 h 33.33 V 353.18 c 16.45,37.23 48.92,64.07 91.35,62.332 V 379.59 h -2.6 c -48.92,0 -88.75,-35.07 -88.75,-102.602 v -89.179 h -33.33 v 223.812"
         style="fill:#0a264a;fill-opacity:1;fill-rule:nonzero;stroke:none"
         transform="matrix(0.13333333,0,0,-0.13333333,0,256.70667)" />
      <path
         id="path29"
         d="m 4232.49,411.621 h 33.34 V 187.809 h -33.34 z m -2.16,85.707 h 38.09 v -36.797 h -38.09 v 36.797"
         style="fill:#0a264a;fill-opacity:1;fill-rule:nonzero;stroke:none"
         transform="matrix(0.13333333,0,0,-0.13333333,0,256.70667)" />
      <path
         id="path30"
         d="m 4498.31,312.051 c -3.47,40.699 -26.85,76.187 -71.44,76.187 -38.95,0 -68.39,-32.457 -72.72,-76.187 z M 4320.39,299.07 v 0.86 c 0,64.5 45.44,116.449 107.35,116.449 66.23,0 104.33,-52.809 104.33,-118.18 0,-4.328 0,-6.918 -0.43,-10.82 h -177.49 c 4.76,-48.488 38.96,-75.758 78.78,-75.758 30.74,0 52.39,12.559 70.57,31.598 l 20.77,-18.61 c -22.51,-25.109 -49.77,-41.988 -92.2,-41.988 -61.47,0 -111.68,47.188 -111.68,116.449"
         style="fill:#0a264a;fill-opacity:1;fill-rule:nonzero;stroke:none"
         transform="matrix(0.13333333,0,0,-0.13333333,0,256.70667)" />
      <path
         id="path31"
         d="m 4562.84,216.379 16.88,23.812 c 24.24,-18.179 51.09,-28.57 77.49,-28.57 26.84,0 46.32,13.848 46.32,35.5 v 0.859 c 0,22.508 -26.41,31.18 -55.85,39.399 -35.06,9.949 -74.02,22.07 -74.02,63.203 v 0.867 c 0,38.531 32.04,64.063 76.19,64.063 27.27,0 57.58,-9.524 80.52,-24.672 l -15.15,-25.11 c -20.78,13.418 -44.59,21.649 -66.24,21.649 -26.41,0 -43.28,-13.859 -43.28,-32.469 v -0.871 c 0,-21.211 27.7,-29.43 57.57,-38.519 34.63,-10.391 71.86,-23.809 71.86,-64.071 v -0.867 c 0,-42.422 -35.07,-67.102 -79.66,-67.102 -32.03,0 -67.53,12.559 -92.63,32.899"
         style="fill:#0a264a;fill-opacity:1;fill-rule:nonzero;stroke:none"
         transform="matrix(0.13333333,0,0,-0.13333333,0,256.70667)" />
      <path
         id="path32"
         d="m 1094.57,1488.8 18.47,-25.42 12.01,-16.72 c 3.92,-5.53 8.2,-11.39 12.9,-16.67 9.36,-10.66 20.42,-19.97 32.74,-27.18 12.29,-7.24 25.77,-12.36 39.57,-15.52 5.23,-1.21 25.57,-4.98 43.49,-4.15 11.4,0.53 23.33,2.54 33.27,8.46 0.8,0.47 6.21,3.24 5.95,4.44 -1.21,5.62 -0.76,4.39 -3.37,11.12 -16.56,42.91 -73.21,77.04 -111.64,42.09 -2.91,39.65 42.73,86.47 100.26,43.07 -23.05,31.88 -31.59,42.79 -50.18,62.88 -9.59,10.37 -17.49,22.24 -23.96,34.77 -6.21,12 -11.59,24.73 -15.56,37.66 -1.16,3.78 -2.18,7.6 -3.01,11.47 -3.01,13.89 -3.54,28.22 -0.14,42.12 2.02,8.29 5.94,16.26 11.04,23.11 21.46,28.89 48.46,25.74 54.15,27.48 5.48,12.71 29.46,23.89 43.4,26.55 13.93,2.65 57.65,8.09 62.65,25.86 1.48,-6.74 0.96,-49.79 -25.77,-58.47 18.07,-5.74 52.77,-24.02 62.57,-30.69 9.82,-6.66 46.83,-27.45 66.45,-23.06 19.62,4.39 -54.93,-54.49 -139.19,15.68 6.19,-12.61 11.09,-37.89 -2.73,-50.67 -13.81,-12.78 -38.39,-8.77 -45.54,-3.77 7.86,5.14 20.64,28.88 3.4,52.37 -10.59,14.41 -50.47,6.61 -72.09,-17.1 1.04,1.02 2.13,2.02 3.31,2.99 13.9,-5.79 83.23,-61.53 111.9,-161.73 1.02,24.5 34.08,74.37 77.33,84.87 -18.42,-34.76 -27.24,-47.5 -27.23,-100.69 0.04,-53.17 -17.14,-92.15 -37.82,-111.74 -4.68,-15.31 -18.97,-47 -45.87,-58.2 -28.14,-11.72 -69.15,-2.53 -83.58,2.18 -24.77,8.08 -50.49,27.9 -63.35,38.32 27.34,-59.7 79.5,-90.48 133.9,-100.99 -14.52,-22.92 -58.53,-16.54 -75,-9.93 6.24,-4.16 17.88,-30.23 23.32,-43.69 5.44,-13.46 11.22,-48.02 20.91,-62.29 -51.36,22.35 -75.79,77.85 -80.81,95.53 1.44,-32.89 -31.9,-64.61 -43.29,-76.53 4.96,75.48 -17.48,134.73 -34.18,166.28 10.16,95.77 -0.47,127.63 -10.59,150.87 -0.63,1.45 -3.95,6.39 -4.71,8.13 7.97,-3.39 11.66,-3.97 18.68,-3.97 1.78,-0.01 5.66,0.06 7.94,0.88"
         style="fill:#d2a715;fill-opacity:1;fill-rule:nonzero;stroke:none"
         transform="matrix(0.13333333,0,0,-0.13333333,0,256.70667)" />
      <path
         id="path33"
         d="m 551.93,673.23 v 0 c 0,0 -25.121,-5.75 -40.528,16.942 0,0 1.629,34.129 -4.043,37.367 -5.683,3.242 -11.351,-43.769 -12.16,-49.449 -2.097,-14.551 -5.414,-13.18 -9.32,-30.391 -36.481,-9.719 -56.52,-14.609 -75.914,20.723 1.273,-2.352 17.547,-41.012 12.777,-39.832 -30.922,7.648 -44.898,18.332 -53.601,50.359 2.047,-11.379 3.742,-27.41 -0.18,-38.461 -14.906,6.942 -20.176,13.883 -25.023,31.043 1.593,10.989 5.464,21.078 7.046,24.809 2.446,4.859 18.141,13.148 22.668,15.422 l 6.465,3.847 c 22.238,14.403 32.965,30.563 43.778,46.86 3.976,-24.117 6.164,-40.43 30.246,-61.598 10.992,14.59 37.75,56.649 36.929,80.149 -0.804,23.492 -9.726,38.89 -1.629,50.25 4.805,6.71 16.75,16 28.547,22.941 0.239,0.937 0.492,1.867 0.758,2.809 1.141,4.07 2.492,8.128 3.906,12.16 4.672,0.218 10.844,0.511 12.313,0.511 4.863,1.629 12.16,6.489 17.824,6.489 0,0 -12.656,-15.34 -16.816,-24.848 -0.121,0.02 -0.243,0.078 -0.36,0.09 -1.742,0.16 -3.402,0.027 -5.004,-0.301 -0.468,-0.801 -0.929,-1.609 -1.386,-2.422 -2.27,-4.09 -4.457,-8.238 -5.981,-12.679 -0.074,-0.211 -0.902,-3.11 -0.914,-3.11 -1.023,-3.601 -1.973,-7.219 -2.781,-10.89 -0.652,-2.93 -1.227,-5.911 -1.574,-8.961 l -0.2,-2.321 c 0.055,-0.777 -0.261,-1.539 0.372,-3.066 0.312,-0.801 1.441,-1.5 2.171,-1.512 0.743,-0.07 1.262,0.059 1.727,0.18 0.906,0.269 1.625,0.601 2.328,0.961 5.199,2.679 10.086,5.371 15.457,5.301 4.09,-0.192 16.074,-25.122 -2.488,-28.352 0,0 -4.867,-35.648 -12.961,-38.891 l 8.906,-18.64 c 11.356,-4.039 18.723,-26.75 2.5,-29.18 3.246,-2.43 8.039,-19.449 16.145,-24.309"
         style="fill:#d2a715;fill-opacity:1;fill-rule:nonzero;stroke:none"
         transform="matrix(0.13333333,0,0,-0.13333333,0,256.70667)" />
      <path
         id="path34"
         d="m 121.848,516.121 v 0 c 0.039,-0.031 0.109,-0.09 0.093,-0.109 0,0 0,0 -0.054,0 -0.008,0.019 -0.028,0.078 -0.039,0.109"
         style="fill:#d2a715;fill-opacity:1;fill-rule:nonzero;stroke:none"
         transform="matrix(0.13333333,0,0,-0.13333333,0,256.70667)" />
      <path
         id="path35"
         d="m 67.3789,487.398 v 0 c 0.0313,-0.039 0.1016,-0.089 0.0859,-0.117 0,0 0,0 -0.0468,0 -0.0078,0.028 -0.0313,0.078 -0.0391,0.117"
         style="fill:#d2a715;fill-opacity:1;fill-rule:nonzero;stroke:none"
         transform="matrix(0.13333333,0,0,-0.13333333,0,256.70667)" />
      <path
         id="path36"
         d="m 251.016,918.07 c 8.828,15.184 44.761,73.649 27.089,103.74 -7.414,12.62 -17.464,17.55 -39.558,17.91 -22.766,0.37 -40.914,0.92 -55.5,1.36 -13.32,0.4 -23.836,0.72 -32.039,0.72 -23.137,0 -25.727,3.15 -31.871,-4.91 l -0.532,-0.68 C 95.3359,1005.95 78.7695,969.48 68.8906,941.617 25.8359,820.219 -11.7422,650.332 3.42578,574.621 c 1.625,-8.109 4.69922,-8.109 5.86328,-8.109 27.52734,0 158.32394,208.168 241.72694,351.558"
         style="fill:#d2a715;fill-opacity:1;fill-rule:nonzero;stroke:none"
         transform="matrix(0.13333333,0,0,-0.13333333,0,256.70667)" />
      <path
         id="path37"
         d="m 1090.66,1206.19 v 0 c -12.87,-22.44 -24.29,-37.84 -46.59,-63.15 l 45.07,0.01 c 3.89,25.31 2.81,49.25 1.52,63.14"
         style="fill:#d2a715;fill-opacity:1;fill-rule:nonzero;stroke:none"
         transform="matrix(0.13333333,0,0,-0.13333333,0,256.70667)" />
      <path
         id="path38"
         d="m 898.148,1148.22 c -38.222,21.5 -88.914,60.99 -139.128,101.96 l -29.196,-19.4 c 28.418,-49.69 96.098,-128.11 168.324,-168.35 v 85.79"
         style="fill:#d2a715;fill-opacity:1;fill-rule:nonzero;stroke:none"
         transform="matrix(0.13333333,0,0,-0.13333333,0,256.70667)" />
      <path
         id="path39"
         d="m 917.445,1062.04 c 72.121,40.44 139.575,119.05 167.865,168.82 l -29.25,19.32 c -50.1,-41.11 -100.685,-80.73 -138.849,-102.34 l 0.234,-85.8"
         style="fill:#d2a715;fill-opacity:1;fill-rule:nonzero;stroke:none"
         transform="matrix(0.13333333,0,0,-0.13333333,0,256.70667)" />
      <path
         id="path40"
         d="m 730.074,1490.48 c 7.016,0 10.711,0.58 18.672,3.96 -0.754,-1.73 -4.078,-6.67 -4.719,-8.13 -10.125,-23.23 -20.781,-55.08 -10.683,-150.85 -16.711,-31.55 -39.188,-90.78 -34.289,-166.26 -11.383,11.93 -44.703,43.66 -43.242,76.56 -5.02,-17.68 -29.497,-73.16 -80.872,-95.47 9.707,14.26 15.497,48.81 20.957,62.27 5.45,13.45 17.106,39.51 23.344,43.67 -16.476,-6.59 -60.48,-12.94 -74.996,9.99 54.41,10.46 106.594,41.21 133.973,100.88 -12.871,-10.39 -38.606,-30.2 -63.379,-38.26 -14.434,-4.7 -55.445,-13.87 -83.57,-2.13 -26.899,11.23 -41.168,42.92 -45.836,58.23 -20.668,19.61 -37.821,58.59 -37.758,111.77 0.051,53.18 -8.754,65.92 -27.153,100.7 43.243,-10.53 76.262,-60.43 77.27,-84.91 28.738,100.18 98.102,155.87 112.004,161.65 1.18,-0.97 2.277,-1.97 3.308,-3 -21.601,23.73 -61.48,31.56 -72.074,17.15 -17.258,-23.48 -4.5,-47.23 3.364,-52.37 -7.149,-5 -31.735,-8.99 -45.54,3.81 -13.816,12.78 -8.898,38.06 -2.699,50.67 -84.301,-70.12 -158.812,-11.2 -139.203,-15.59 19.617,-4.4 56.645,16.35 66.469,23.01 9.808,6.67 44.512,24.91 62.59,30.65 -26.719,8.7 -27.207,51.75 -25.723,58.49 4.981,-17.78 48.695,-23.25 62.633,-25.91 13.93,-2.67 37.902,-13.86 43.379,-26.57 5.679,-1.74 32.683,1.39 54.137,-27.51 5.089,-6.86 8.996,-14.84 11.015,-23.12 3.395,-13.91 2.856,-28.23 -0.164,-42.13 -0.844,-3.87 -1.855,-7.69 -3.023,-11.46 -3.969,-12.93 -9.364,-25.65 -15.578,-37.65 -6.477,-12.53 -14.387,-24.4 -23.989,-34.76 -18.601,-20.08 -27.14,-30.98 -50.215,-62.84 57.547,43.36 103.164,-3.48 100.223,-43.14 -38.398,34.97 -95.07,0.89 -111.672,-42.01 -2.605,-6.74 -2.152,-5.51 -3.367,-11.14 -0.254,-1.18 5.148,-3.96 5.945,-4.44 9.934,-5.91 21.867,-7.93 33.262,-8.47 17.922,-0.84 38.27,2.91 43.504,4.12 13.793,3.15 27.277,8.26 39.578,15.5 12.32,7.2 23.375,16.49 32.758,27.15 4.691,5.28 8.984,11.14 12.906,16.66 l 12.024,16.72 18.488,25.41 c 2.265,-0.82 6.148,-0.9 7.941,-0.9"
         style="fill:#d2a715;fill-opacity:1;fill-rule:nonzero;stroke:none"
         transform="matrix(0.13333333,0,0,-0.13333333,0,256.70667)" />
      <path
         id="path41"
         d="m 1079.81,1506.71 c -12.62,0 -22.12,5.96 -33.17,11.49 -14.69,7.33 -41.04,16.14 -62.429,20.72 -22.535,4.81 -47.707,8.61 -65.695,9.91 -4.551,0.33 -8.5,0.5 -11.754,0.5 h -1.231 c -11.078,0 -28.769,-1.83 -48.535,-5.01 -21.59,-3.49 -42.488,-8.06 -58.875,-12.89 -15.101,-4.46 -23.922,-8.95 -32.492,-13.59 -6.844,-3.72 -20.609,-11.12 -33.109,-11.12 -8.344,0 -13.668,6.57 -16.762,13.95 -5.262,14.09 8.652,35.71 46.527,52.4 17.363,7.65 37.891,13.64 60.992,17.78 21.348,3.82 44.852,7.1 69.86,7.69 4.418,0.1 8.894,0.16 13.472,0.16 19.907,-0.01 39.192,-1.04 57.332,-3.09 25.047,-2.81 47.729,-8.58 67.459,-15.09 39.21,-12.93 59.07,-29.45 65.05,-41.29 3.9,-7.71 1.52,-18.28 0.11,-21.68 -3.1,-7.39 -8.43,-10.84 -16.75,-10.84"
         style="fill:#d2a715;fill-opacity:1;fill-rule:nonzero;stroke:none"
         transform="matrix(0.13333333,0,0,-0.13333333,0,256.70667)" />
      <path
         id="path42"
         d="m 517.113,279.09 c 16.758,-9.738 32.571,-18.918 48.7,-27.512 115.402,-61.539 222.863,-90.398 338.093,-90.808 0.137,0 4.067,0.058 4.313,0.058 115.231,0.41 221.071,29.211 336.481,90.75 16.12,8.594 31.94,17.774 48.69,27.5 38.77,22.512 80.4,46.602 128.68,63.934 0.37,5.539 3.02,16.886 4.55,22.347 -52.67,-17.859 -97.4,-43.789 -138.93,-67.91 -16.63,-9.648 -32.33,-18.777 -48.22,-27.25 -113.64,-60.59 -219.33,-88.898 -332.591,-89.09 -113.242,0.192 -218.918,28.5 -332.57,89.09 -15.891,8.481 -31.594,17.602 -48.239,27.262 -42.601,24.73 -86.527,50.711 -140.988,68.59 1.602,-5.442 1.516,-16.949 1.984,-22.5 49.907,-17.41 90.262,-41.36 130.047,-64.461"
         style="fill:#d2a715;fill-opacity:1;fill-rule:nonzero;stroke:none"
         transform="matrix(0.13333333,0,0,-0.13333333,0,256.70667)" />
      <path
         id="path43"
         d="m 1665.99,352.148 c -6.69,8.403 -18.65,13.961 -36.03,19.313 1.4,-5.281 0,-15.52 0.32,-20.84 11.75,-4.16 13.35,-3.891 17.29,-8.812 1.83,-2.309 1.62,-6.059 1.53,-6.457 -2.11,-9.211 -2.22,-12.09 -3.54,-16.454 -0.97,-3.168 -3.12,-10.199 -5.02,-18.789 -4.53,-20.531 -5.63,-55.629 -3.87,-76.988 -12.22,10.34 -27.07,14.207 -59.01,14.207 -47.63,0 -103.58,-31.457 -168.37,-67.867 C 1370.67,147.77 1326.9,123.172 1279.6,102.328 1149.93,45.1602 1038.48,20.7813 906.965,20.7813 h -0.164 c -131.508,0 -242.953,24.3789 -372.637,81.5387 -47.293,20.852 -91.062,45.442 -129.668,67.141 -64.805,36.41 -120.766,67.867 -168.375,67.867 -31.945,0 -49.285,-10.219 -61.516,-20.566 0.04,19.859 0.399,51.789 -6.261,83.097 -1.836,8.602 -3.953,15.911 -5.078,19.039 -1.532,4.301 -2.207,5.692 -4.305,14.911 -0.09,0.402 0.019,3.293 1.859,5.601 3.481,4.371 8.352,6.09 18.246,9.922 -0.41,8.098 -0.261,15.527 1.032,20.887 -15.571,-5.207 -29.84,-10.739 -36.012,-18.481 -5.141,-6.437 -5.172,-17.316 -4.285,-21.179 2.34,-10.25 3.715,-13.809 4.929,-16.938 1.036,-2.652 1.918,-4.949 3.508,-12.391 12.016,-56.441 5.336,-101.898 5.067,-111.191 -0.125,-4.449 0.254,-8 0.254,-8 l -0.059,1.301 c 0.734,-17.531 6.535,-46.352 33.008,-61.199 3.293,-2.25 6.754,-4.192 10.367,-5.743 11.793,-5.269 24.551,-7.136 37.051,-7.589 12.484,-0.207 25.012,0.332 37.39,2.703 12.293,2.398 24.747,6.648 34.852,15.09 5.008,4.199 8.977,8.687 11.562,14.898 1.223,2.941 0.711,7.18 0.528,8.289 -3.985,22.871 -76.266,27.793 -80.215,3.5 -0.621,-3.769 -17.227,-2.758 -17.227,0.891 0,22.789 0.418,44.351 0.418,67.152 2.028,0.59 6.879,0.949 9.727,0.969 3.086,0.027 5.793,-0.313 7.609,-0.903 0,-18.808 0.41,-24.007 0.41,-42.82 17.235,15.094 61.918,11.262 79.157,-4.789 0,12.133 0,6.102 0,18.231 24.566,-11.61 51.011,-26.872 79.203,-42.719 C 436.246,127.449 479.922,104.34 527.867,83.1992 659.516,25.1719 773.141,0 906.801,0 h 0.164 c 133.665,0 247.695,24.7617 379.355,82.7891 47.95,21.1329 91.62,45.9099 130.53,67.7699 28.68,16.121 55.14,31.191 80.08,42.882 0,-12.312 0,-7.73 0,-20.062 17.23,16.043 62.76,18.621 79.98,3.531 0,18.84 0,25.301 0,44.121 0.24,0.008 5.24,0.969 8.65,0.867 3.42,-0.097 7.27,-0.636 8.69,-1.027 0,-22.789 0,-43.91 0,-66.691 0,-3.649 -16.62,-4.66 -17.22,-0.891 -3.96,24.301 -76.23,19.371 -80.22,-3.5 -0.1,-0.629 0.3,-4.82 0.99,-6.43 2.74,-6.328 6.91,-11.859 11.93,-16.179 10.09,-8.719 22.56,-13.11 34.85,-15.578 12.37,-2.454 24.91,-3 37.39,-2.793 0.82,0.031 1.63,0.089 2.44,0.14 64.96,1.422 76.63,48.512 77.8,72.082 0.13,2.739 -0.86,9.949 -0.86,9.949 -1.75,10.122 -10.14,60.719 0.5,110.668 1.55,7.293 2.51,9.543 3.5,12.403 1.49,4.301 2.03,6.199 4.93,16.918 1.04,3.82 0.85,14.742 -4.29,21.179"
         style="fill:#d2a715;fill-opacity:1;fill-rule:nonzero;stroke:none"
         transform="matrix(0.13333333,0,0,-0.13333333,0,256.70667)" />
      <path
         id="path44"
         d="m 522.781,379.07 c 16.766,-7.601 35.184,-7.179 51.289,-0.441 14.028,-15.289 22.618,-24.129 35.086,-35.391 -26.418,-6.609 -81.898,-18.508 -117.996,20.864 12.82,-36.571 35.735,-70.813 149.238,-50.332 7.125,-7.11 36.915,-33.36 49.77,-41.719 7.812,-5.09 20.535,-12.129 31.332,-1.742 9.73,9.382 6.496,21.57 -0.395,26.382 -12.792,8.93 -45.367,32.028 -56.792,45.719 3.894,12.219 47.64,98.871 -18.778,133.961 14.641,-33.48 10.727,-81.883 -6.765,-109.82 -14.907,11.988 -20.543,20 -34.704,36.429 3.399,4.34 3.918,5.872 6.305,11.141 15.547,34.238 1.547,74.098 -31.285,89.02 -14.043,6.359 -29.231,7.109 -43.262,3.218 l -37.386,92.719 -2.375,-19.09 -18.196,-1.84 -1.125,-18.699 -19.422,-2.23 -0.316,-18.668 -20.234,-2.25 -0.301,-18.672 -20.246,-2.219 0.925,-17.469 -21.457,-3.441 92.508,-35.43 c -9.609,-31.961 4.582,-66.379 34.582,-80"
         style="fill:#d2a715;fill-opacity:1;fill-rule:nonzero;stroke:none"
         transform="matrix(0.13333333,0,0,-0.13333333,0,256.70667)" />
      <path
         id="path45"
         d="m 1251.82,466.711 c 0.09,-6.621 1.07,-12.762 3.85,-18.32 -6.79,-3.032 -13.39,-6.442 -19.8,-10.391 -4.83,-8.328 30.82,-38.859 36.91,-31.66 l 0.36,0.39 c 2.84,6.52 5.34,13.192 7.47,19.719 6.32,-1.969 12.46,-2.929 18.61,-2 0.74,-6.91 1.84,-13.777 3.43,-20.617 l 0.1,-0.172 c 4.65,-8.238 44.8,15.621 41.73,24.301 -5.39,4.801 -11.04,9.32 -16.69,13.418 3.83,5.41 6.64,10.949 7.66,17.09 6.81,-1.438 13.68,-2.52 20.68,-3.117 8.05,3.48 -1.21,49.269 -10.87,46.687 l -0.21,-0.051 c -5.86,-3.476 -11.54,-7.238 -16.87,-11.117 -3.97,5.309 -8.37,9.699 -13.89,12.57 3.53,6.129 6.73,12.438 9.49,19.028 -3.17,8.422 -43.83,13.441 -48.2,4.859 1.54,-7.09 3.47,-14.117 5.64,-20.797 -6.27,-2.121 -11.81,-4.961 -16.23,-9.32 -4.89,5.398 -10.05,10.527 -15.64,15.309 -8.74,1.242 -27.41,-39.348 -19.67,-44.692 7.43,-0.758 14.92,-1.117 22.14,-1.117 z m -18.68,67.84 c -2.13,13.847 -2.74,28.058 -3.19,42.371 12.44,-7.281 23.4,-15.383 34.09,-24.66 8.67,31.91 79.74,23.519 74.75,-7.602 12.86,6.61 26.6,11.731 40.48,16.731 -3.2,-14.68 -7.76,-28.102 -13.62,-41.692 0.26,0.071 0.52,0.16 0.77,0.262 34.28,5.82 44.46,-61.742 15.67,-71.211 -0.21,-0.07 -0.43,-0.039 -0.64,-0.07 10.57,-10.379 19.93,-22.149 29.19,-34.102 -14.42,-1.437 -28.12,-1.316 -42.31,-0.066 14.09,-30.524 -47.64,-61.774 -64.4,-37.223 -6.57,-13.109 -14.79,-25.527 -23.21,-37.918 -5.89,13.41 -10.03,26.609 -13.24,40.649 -6.94,-8.18 -19.73,-7.801 -31.41,-0.75 -12.16,-15.661 -26.46,-30.911 -61.88,-63.469 22.84,-9.422 31.19,18.73 65.06,16.121 21.59,-1.672 25.19,-24.832 38.54,-19.883 0,0 -22.32,-22.66 -49.98,-24.391 -39.61,-2.476 -44.86,13.391 -62.24,19.774 -21.65,-15.313 -39.04,-28.731 -59.25,-36.723 0,0 -27.31,-17.828 -35.53,5.942 -8.23,23.757 16.3,29.05 22.87,31.789 19.19,8.019 45.08,22.75 51.01,28.011 -9.29,28.161 -40.03,7.598 -36.78,54.129 2.05,29.352 22.52,47.18 20.89,41.192 3.13,-22.653 19.91,-18.703 28.02,-35.684 13.05,-27.297 -8.68,-33.848 -0.65,-52.137 29.4,20.02 49.21,43.457 58.64,54.61 -8.29,10.621 -9.98,23.238 -3.25,30.027 0.26,0.262 0.56,0.481 0.82,0.742 -14.54,2.2 -28.91,6.192 -43.32,10.379 10.64,9.481 21.61,17.332 33.59,24.563 -30.78,14.918 -2.08,85.226 30.51,70.289"
         style="fill:#d2a715;fill-opacity:1;fill-rule:evenodd;stroke:none"
         transform="matrix(0.13333333,0,0,-0.13333333,0,256.70667)" />
      <path
         id="path46"
         d="m 1281.4,487.32 c 11.67,6.512 26.42,2.328 32.95,-9.34 6.51,-11.679 2.34,-26.429 -9.34,-32.941 -11.68,-6.527 -26.43,-2.348 -32.95,9.332 -6.52,11.668 -2.34,26.418 9.34,32.949"
         style="fill:#d2a715;fill-opacity:1;fill-rule:evenodd;stroke:none"
         transform="matrix(0.13333333,0,0,-0.13333333,0,256.70667)" />
      <path
         id="path47"
         d="m 1258.11,673.23 v 0 c 0,0 25.12,-5.75 40.52,16.942 0,0 -1.62,34.129 4.05,37.367 5.68,3.242 11.35,-43.769 12.15,-49.449 2.1,-14.551 5.42,-13.18 9.33,-30.391 36.48,-9.719 56.51,-14.609 75.91,20.723 -1.28,-2.352 -17.55,-41.012 -12.78,-39.832 30.92,7.648 44.9,18.332 53.6,50.359 -2.04,-11.379 -3.74,-27.41 0.18,-38.461 14.91,6.942 20.18,13.883 25.03,31.043 -1.59,10.989 -5.47,21.078 -7.05,24.809 -2.44,4.859 -18.14,13.148 -22.66,15.422 l -6.47,3.847 c -22.23,14.403 -32.97,30.563 -43.78,46.86 -3.98,-24.117 -6.16,-40.43 -30.25,-61.598 -10.98,14.59 -37.74,56.649 -36.92,80.149 0.8,23.492 9.72,38.89 1.62,50.25 -4.8,6.71 -16.75,16 -28.54,22.941 -0.24,0.937 -0.5,1.867 -0.76,2.809 -1.14,4.07 -2.5,8.128 -3.91,12.16 -4.67,0.218 -10.84,0.511 -12.31,0.511 -4.86,1.629 -12.15,6.489 -17.82,6.489 0,0 12.66,-15.34 16.81,-24.848 0.13,0.02 0.24,0.078 0.36,0.09 1.74,0.16 3.41,0.027 5,-0.301 0.48,-0.801 0.94,-1.609 1.39,-2.422 2.28,-4.09 4.46,-8.238 5.98,-12.679 0.08,-0.211 0.91,-3.11 0.92,-3.11 1.02,-3.601 1.97,-7.219 2.78,-10.89 0.65,-2.93 1.22,-5.911 1.57,-8.961 l 0.2,-2.321 c -0.05,-0.777 0.26,-1.539 -0.37,-3.066 -0.31,-0.801 -1.44,-1.5 -2.17,-1.512 -0.74,-0.07 -1.26,0.059 -1.72,0.18 -0.91,0.269 -1.63,0.601 -2.33,0.961 -5.21,2.679 -10.09,5.371 -15.46,5.301 -4.09,-0.192 -16.08,-25.122 2.49,-28.352 0,0 4.86,-35.648 12.96,-38.891 l -8.91,-18.64 c -11.35,-4.039 -18.72,-26.75 -2.5,-29.18 -3.25,-2.43 -8.04,-19.449 -16.14,-24.309"
         style="fill:#d2a715;fill-opacity:1;fill-rule:nonzero;stroke:none"
         transform="matrix(0.13333333,0,0,-0.13333333,0,256.70667)" />
      <path
         id="path48"
         d="m 1688.19,516.121 v 0 c -0.04,-0.031 -0.11,-0.09 -0.1,-0.109 0,0 0,0 0.06,0 0.01,0.019 0.03,0.078 0.04,0.109"
         style="fill:#d2a715;fill-opacity:1;fill-rule:nonzero;stroke:none"
         transform="matrix(0.13333333,0,0,-0.13333333,0,256.70667)" />
      <path
         id="path49"
         d="m 1742.66,487.398 v 0 c -0.04,-0.039 -0.1,-0.089 -0.09,-0.117 0,0 0,0 0.05,0 0.01,0.028 0.03,0.078 0.04,0.117"
         style="fill:#d2a715;fill-opacity:1;fill-rule:nonzero;stroke:none"
         transform="matrix(0.13333333,0,0,-0.13333333,0,256.70667)" />
      <path
         id="path50"
         d="m 1559.02,918.07 c -8.83,15.184 -44.76,73.649 -27.09,103.74 7.41,12.62 17.46,17.55 39.56,17.91 22.76,0.37 40.92,0.92 55.5,1.36 13.32,0.4 23.84,0.72 32.04,0.72 23.14,0 25.72,3.15 31.87,-4.91 l 0.53,-0.68 c 23.27,-30.26 39.83,-66.73 49.72,-94.593 43.05,-121.398 80.63,-291.285 65.46,-366.996 -1.62,-8.109 -4.7,-8.109 -5.86,-8.109 -27.53,0 -158.33,208.168 -241.73,351.558"
         style="fill:#d2a715;fill-opacity:1;fill-rule:nonzero;stroke:none"
         transform="matrix(0.13333333,0,0,-0.13333333,0,256.70667)" />
      <path
         id="path51"
         d="m 777.461,1788.43 c 9.902,-6.41 27.387,-9.14 48.656,-7.92 21.27,1.22 27.699,4.61 40.676,-5.07 12.98,-9.69 11.758,-28.75 17.598,-43.07 5.851,-14.32 13.714,-30.31 31.132,-41.48 17.415,-11.18 29.207,-16.8 49.043,-16.6 19.825,0.2 36.694,5.04 47.664,-4.06 10.95,-9.1 10.06,-10.51 11.57,-16.08 23.78,4.35 26.84,34.98 26.83,57.27 -4.6,5.15 -5.37,4.48 -15.71,11.04 -10.34,6.56 -31.61,11.38 -45.623,9.92 -14.02,-1.46 -32.324,-3.5 -42.715,5.72 -10.398,9.22 -12.852,28.45 -17.246,43.83 -4.391,15.38 -14.359,25.1 -26.785,37.1 -12.438,11.99 -34.461,19.71 -52.223,19.5 -17.769,-0.21 -37.894,-4.45 -48.101,2.54 -10.2,6.99 -11.5,17 -11.5,17 0,0 -30.282,-6.55 -29.043,-55.6 6.277,-8.11 6.964,-8.77 15.777,-14.04 z m 316.129,-157.47 c 6.19,-6.11 11.54,-41.92 11.54,-48.91 -8.86,5.23 -34.46,-2.66 -49.49,5.19 -13.49,7.06 -9.49,26.6 -8.76,36.72 l 0.32,0.13 c -2.94,-0.97 -5.57,-1.57 -7.84,-1.75 -3.69,-0.33 -6.28,0.41 -7.68,2.18 -1.6,2.03 -2.05,6.83 -1.74,10.06 -7.9,-2.49 -17.29,-4.2 -28.45,-5.6 -57.881,-7.21 -136.994,-7.21 -187.552,0.36 -12.715,1.91 -23.141,3.93 -31.708,6.71 0.348,-3.23 -0.085,-8.16 -1.71,-10.23 -1.411,-1.77 -3.981,-2.51 -7.676,-2.19 -2.137,0.18 -4.586,0.71 -7.317,1.58 0.844,-10.3 4.45,-29.17 -8.757,-36.09 -15.016,-7.87 -40.633,0 -49.481,-5.24 0,6.98 5.301,42.79 11.477,48.91 6.183,6.12 14.129,9.36 25.625,9.37 l 2.019,-0.42 c -1.012,1.44 -1.84,2.8 -2.39,3.99 -1.129,2.47 -1.563,6.01 0.101,8.35 1.57,2.27 6.301,2.9 9.957,2.95 -5.187,9.19 -8.101,21.65 -9.832,39.05 -4.867,49.01 -5.281,60.7 -0.183,118.81 1.457,16.61 5.566,28.87 11.574,37.99 l -0.028,-0.02 c -3.671,-0.17 -10.144,0.18 -12.054,2.91 -1.664,2.35 -1.235,5.89 -0.098,8.36 0.582,1.25 1.246,2.47 1.957,3.65 l -0.16,-0.17 -3.063,-0.64 c -11.511,0 -19.453,3.25 -25.636,9.37 -6.172,6.11 -11.496,41.93 -11.496,48.91 8.851,-5.24 34.468,2.63 49.488,-5.24 13.391,-7.01 9.508,-26.34 8.734,-36.52 3.688,1.49 7.356,2.6 8.992,2.74 3.696,0.32 6.274,-0.42 7.676,-2.19 1.711,-2.17 2.102,-7.5 1.649,-10.7 15.668,6.17 34.343,7.22 52.355,9.01 41.152,4.07 94.949,4.65 159.289,-0.54 15.238,-1.22 27.158,-3.59 36.548,-7.04 -0.18,3.18 0.32,7.43 1.8,9.3 1.4,1.78 3.98,2.5 7.67,2.19 2.19,-0.19 4.7,-0.74 7.53,-1.66 -0.92,10.43 -4.09,28.67 8.85,35.44 15.02,7.85 40.63,-0.03 49.49,5.19 -0.01,-6.99 -5.35,-42.79 -11.54,-48.9 -6.18,-6.11 -14.14,-9.36 -25.64,-9.35 l -1.76,0.38 c 0.77,-1.16 1.41,-2.26 1.87,-3.24 1.12,-2.47 1.56,-6.01 -0.11,-8.35 -1.69,-2.41 -6.94,-2.96 -10.68,-2.94 6.36,-11.15 8.77,-25.32 11.16,-42.29 5.98,-42.24 3.7,-56.52 0.53,-106.12 -1.44,-22.31 -4.61,-37.76 -10.82,-48.67 3.66,-0.05 8.33,-0.69 9.91,-2.93 1.65,-2.34 1.23,-5.89 0.1,-8.35 -0.65,-1.39 -1.68,-3.02 -2.92,-4.73 l 2.71,0.56 c 11.51,0.01 19.46,-3.24 25.65,-9.34"
         style="fill:#d2a715;fill-opacity:1;fill-rule:nonzero;stroke:none"
         transform="matrix(0.13333333,0,0,-0.13333333,0,256.70667)" />
      <path
         id="path52"
         d="m 316.402,1292.05 c 1.004,-1.39 2.828,-1.84 4.336,-1.17 l 0.024,0.01 c 7.48,3.34 14.965,4.38 22.613,3.86 7.645,-0.41 14.961,-3.08 21.406,-7.14 12.813,-8.23 20.684,-22.28 23.11,-37.04 1.164,-7.26 1.629,-14.06 -0.34,-21.58 -1.836,-7.58 -5.637,-14.17 -10.196,-20.38 -4.589,-6.18 -9.484,-11.25 -16.652,-14.44 -7.144,-3.34 -14.594,-3.88 -23.105,-3.91 -1.215,-0.01 -2.571,-1.48 -2.571,-2.71 0.012,-1.02 0.715,-3.11 1.672,-3.35 l 0.063,-0.01 c 8.652,-2.19 18.261,-2.31 27.457,0.3 9.183,2.65 17.633,8.2 24.023,15.43 12.664,14.64 19.469,33.69 16.809,53.37 -3.227,19.51 -15.434,37.13 -32.453,46.55 -8.473,4.73 -19.168,7.13 -28.899,6.61 -9.746,-0.52 -19.015,-3.25 -26.488,-8.65 v 0 c -1.586,-1.14 -1.957,-4.16 -0.809,-5.75 z m 23.231,-76.86 c 13.519,0 24.472,10.96 24.472,24.47 0,13.52 -10.953,24.47 -24.472,24.47 -13.516,0 -24.473,-10.95 -24.473,-24.47 v 0 c 0,-13.51 10.957,-24.47 24.473,-24.47 z m -68.82,-34.96 c 0,0 6.218,-4.05 11.101,-10.03 4.883,-5.98 9.574,-13.68 9.574,-13.68 0,0 4.688,7.7 9.571,13.68 4.886,5.98 11.105,10.03 11.105,10.03 0,0 -4.859,6.38 -10.769,14.26 -5.911,7.88 -9.907,17.91 -9.907,17.91 0,0 -3.992,-10.03 -9.902,-17.91 v 0 c -5.918,-7.88 -10.773,-14.26 -10.773,-14.26 z m -76.079,19.69 c 6.383,-7.23 14.836,-12.78 24.028,-15.43 9.187,-2.61 18.801,-2.49 27.453,-0.3 l 0.058,0.01 c 1.184,0.29 2.434,2.33 2.129,3.51 -0.257,1 -1.687,2.51 -2.672,2.51 -8.519,0.04 -15.066,0.99 -22.218,4.33 -7.16,3.2 -13.301,8.01 -17.907,14.19 -4.546,6.21 -8.046,12.48 -9.875,20.06 -1.968,7.52 -2.085,14.65 -0.925,21.91 2.425,14.76 11.269,28.2 24.074,36.42 6.453,4.06 13.031,6.39 20.684,6.79 7.632,0.52 15.171,0.31 22.66,-3.03 l 0.023,-0.01 c 1.797,-0.8 3.899,0.01 4.692,1.8 0.699,1.56 0.644,4.16 -0.704,5.12 -7.464,5.4 -17.214,8.13 -26.953,8.65 -9.73,0.52 -19.633,-1.95 -28.113,-6.69 -17.023,-9.43 -29.234,-26.55 -32.453,-46.06 v 0 c -2.668,-19.68 3.348,-39.14 16.019,-53.78 z m 48.606,64.21 c -13.516,0 -24.473,-10.95 -24.473,-24.47 0,-13.51 10.957,-24.47 24.473,-24.47 13.515,0 24.473,10.96 24.473,24.47 v 0 c 0,13.52 -10.958,24.47 -24.473,24.47 z m 83.07,-172.79 c 10.934,6.05 21.266,11.76 29.774,11.76 8.332,0 17.211,-3.67 26.605,-7.55 7.633,-3.16 9.961,-4.28 18.027,-7.01 v 57.09 c -7.128,2.64 -8.738,3.48 -16.171,6.55 -9.856,4.07 -19.165,7.92 -28.461,7.92 -9.758,0 -20.625,-6.01 -32.129,-12.37 -12.164,-6.74 -24.739,-13.69 -36.383,-13.69 -10.992,0 -19.625,5.53 -28.77,11.39 -9.336,5.97 -18.98,12.15 -31.386,12.15 -12.621,0 -25.836,-6.83 -38.606,-13.42 -4.93,-2.55 -2.316,-1.33 -6.691,-3.88 v -56.51 c 4.25,1.99 1.769,0.23 8.918,3.93 12.265,6.33 24.937,12.87 36.379,12.87 10.976,0 19.617,-5.52 28.754,-11.38 9.335,-5.98 18.988,-12.16 31.402,-12.16 v 0 c 12.894,0 26.035,7.28 38.738,14.31 z m 64.707,-80.9 c -32.031,0 -57.992,-25.96 -57.992,-57.987 0,-32.012 25.961,-57.984 57.992,-57.984 32.024,0 57.988,25.972 57.988,57.984 v 0 c 0,32.027 -25.964,57.987 -57.988,57.987 z m 32.137,72.27 c 14.512,-6.09 29.488,-14.55 41.961,-27.02 10.394,-10.4 17.973,-21 22.008,-39.48 4.23,-19.394 4.59,-36.858 1.554,-58.858 -2.957,-21.465 -9.125,-40.704 -12.648,-52.442 -1.953,-5.551 -8.649,-30.898 -33.727,-80.211 -12.058,-23.711 -34.089,-58.949 -53.484,-77.808 -8.68,-8.422 -16.645,-14.52 -25.77,-20.59 -8.503,-5.629 -20.593,-8.922 -25.312,-18.801 -7.227,-15.16 -18.844,-69.59 -28.719,-101.859 -13.808,-45.082 -30.64,-81.153 -30.64,-97.129 0,-8.184 -2.407,-11.492 -5.317,-12.223 l -2.363,-13.57 c 0,-9.739 2.012,-62.879 12.547,-70.989 10.539,-8.101 16.207,-17.82 30.797,-17.82 14.589,0 32.484,5.668 38.168,5.668 5.675,0 21.8,-37.359 20.179,-62.476 -1.621,6.476 -11.34,21.878 -21.07,26.75 0,0 -13.984,6.918 -18.387,7.82 -4.047,0.449 4.766,-6.391 6.907,-8.953 2.898,-3.699 5.496,-8.008 7.109,-12.41 2.055,-8.688 -0.016,-21.95 -2.109,-31.039 -4.848,8.91 -14.602,25.128 -22.696,25.128 0,0 -19.453,-4.859 -25.929,8.911 -8.918,0 -23.485,3.871 -25.114,8.722 -2.429,0 -20.258,-2.429 -25.933,-1.621 0,0 -22.688,-14.39 -28.368,-5.469 0,0 -20.05,-11.562 -20.05,-26.14 0,0 -14.895,56.988 11.043,64.281 0,0 25.941,-4.844 31.605,11.348 4.473,12.761 -11.469,65.73 -23.598,99.73 -7.144,4.86 -15.367,37.711 -12.406,72.078 C 162.191,504.73 123.914,440.582 116.758,435.59 100.117,423.988 12.5938,470.461 17.4531,488.559 c 1.6211,6.031 11.2852,32.671 32.0782,87.113 77.7657,85.637 206.4917,312.887 223.6097,343.43 7.754,13.843 44.371,72.82 21.797,112.348 -9.086,15.91 -29.02,26.4 -54.786,26.82 -22.691,0.37 -40.812,0.92 -55.363,1.36 -13.402,0.41 -23.988,0.73 -32.34,0.73 -6.433,0 -11.672,-0.21 -16.101,-0.7 5.183,5.89 11.054,11.23 17.722,15.79 0,-0.06 2.625,0.04 5.246,1.19 v 47.82 c -0.086,-0.01 0.481,4.72 0.395,8.12 -3.734,33.55 -11.035,137.65 24.367,173.93 -7.531,10.93 -13.453,48.82 2.414,88.34 19.223,-3.37 40.184,-30.03 53.559,-61.98 25.902,7.57 80.199,7.57 100.254,-2.52 11.707,20.17 22.168,53.75 58.933,59.64 5.84,-14.29 17.094,-54.9 1.227,-85.17 14.785,-12.39 33.262,-53.32 21.992,-162.18 v 0 l 0.797,-59.93"
         style="fill:#d2a715;fill-opacity:1;fill-rule:nonzero;stroke:none"
         transform="matrix(0.13333333,0,0,-0.13333333,0,256.70667)" />
      <path
         id="path53"
         d="m 1021.48,811.602 h 147.2 c 1.07,1.539 2.96,5.058 2.96,12.367 0,7.312 -1.57,10.601 -2.63,12.109 H 1021.8 c -1.06,-1.508 -3.27,-4.789 -3.27,-12.109 0,-7.309 1.89,-10.848 2.95,-12.367 z m -3.68,109.168 9.56,-68.079 h 3.98 l 9.57,68.079 c 0.01,0.082 0.02,0.14 0.02,0.21 -0.12,1.098 -1.42,5.715 -5.25,5.715 h -12.65 c -3.83,0 -5.11,-4.617 -5.26,-5.707 0.02,-0.078 0.03,-0.136 0.03,-0.218 z m 148.34,98.68 h -3.98 l -9.56,-68.97 c -0.01,-0.05 -0.02,-0.128 -0.03,-0.203 0.14,-1.086 1.42,-5.781 5.26,-5.781 h 12.65 c 3.82,0 5.11,4.66 5.26,5.774 -0.02,0.058 -0.03,0.14 -0.04,0.21 z m -125.23,-68.97 -9.57,68.97 h -3.98 l -9.56,-68.97 c -0.01,-0.05 -0.01,-0.128 -0.03,-0.203 0.15,-1.086 1.42,-5.781 5.25,-5.781 h 12.66 c 3.83,0 5.12,4.66 5.25,5.774 -0.01,0.058 -0.01,0.14 -0.02,0.21 z m 128.1,85.58 c 1.06,1.53 2.63,4.8 2.63,12.12 0,7.31 -1.57,10.2 -2.63,11.72 H 1021.8 c -1.06,-1.52 -3.27,-4.41 -3.27,-11.72 0,-7.32 2.21,-10.59 3.27,-12.12 z m -63.29,-101.376 c 0,2.25 1.01,4.394 2.75,5.804 19.66,16.203 27.9,56.657 34.41,78.962 h -93.51 c 6.51,-22.305 14.74,-62.759 34.41,-78.958 1.73,-1.414 2.74,-3.558 2.74,-5.808 0,-2.25 -1.01,-4.379 -2.74,-5.797 -18.88,-15.559 -26.66,-53.457 -33.59,-76.196 h 91.86 c -6.92,22.739 -14.7,60.637 -33.58,76.188 -1.74,1.426 -2.75,3.555 -2.75,5.805 z m 70.02,-13.704 c -0.14,1.098 -1.42,5.715 -5.25,5.715 h -12.66 c -3.83,0 -5.12,-4.617 -5.26,-5.707 0.01,-0.078 0.03,-0.136 0.03,-0.218 l 9.56,-68.079 h 3.98 l 9.57,68.079 c 0,0.082 0.01,0.14 0.03,0.21 z M 677.25,528.012 h 147.203 c 1.067,1.527 2.949,5.047 2.949,12.359 0,7.309 -1.562,10.598 -2.621,12.109 H 677.578 c -1.07,-1.511 -3.269,-4.789 -3.269,-12.109 0,-7.312 1.879,-10.84 2.941,-12.359 z m -3.676,109.168 9.563,-68.09 h 3.98 l 9.567,68.09 c 0.004,0.07 0.015,0.14 0.027,0.199 -0.141,1.101 -1.43,5.723 -5.258,5.723 h -12.652 c -3.828,0 -5.11,-4.622 -5.262,-5.704 0.02,-0.078 0.031,-0.136 0.035,-0.218 z m 148.34,98.672 h -3.984 l -9.555,-68.961 c -0.012,-0.063 -0.023,-0.129 -0.031,-0.2 0.129,-1.089 1.422,-5.793 5.261,-5.793 h 12.649 c 3.82,0 5.109,4.661 5.254,5.782 -0.02,0.05 -0.024,0.14 -0.039,0.211 z m -125.234,-68.961 -9.563,68.961 h -3.98 l -9.567,-68.961 c -0.011,-0.063 -0.011,-0.129 -0.031,-0.2 0.149,-1.089 1.426,-5.793 5.254,-5.793 h 12.656 c 3.828,0 5.121,4.661 5.262,5.782 -0.012,0.05 -0.023,0.14 -0.031,0.211 z m 128.101,85.578 c 1.059,1.531 2.621,4.801 2.621,12.109 0,7.32 -1.562,10.211 -2.621,11.731 H 677.578 c -1.07,-1.52 -3.269,-4.411 -3.269,-11.731 0,-7.316 2.199,-10.578 3.269,-12.109 z M 761.5,651.09 c 0,2.25 1,4.39 2.738,5.808 19.664,16.204 27.903,56.661 34.407,78.954 h -93.504 c 6.507,-22.293 14.746,-62.75 34.414,-78.954 1.73,-1.418 2.742,-3.558 2.742,-5.808 0,-2.25 -1.012,-4.379 -2.742,-5.801 -18.887,-15.551 -26.668,-53.457 -33.586,-76.199 h 91.847 c -6.914,22.742 -14.695,60.648 -33.578,76.191 -1.738,1.43 -2.738,3.559 -2.738,5.809 z m 70.008,-13.711 c -0.137,1.101 -1.418,5.723 -5.246,5.723 h -12.657 c -3.832,0 -5.121,-4.622 -5.261,-5.704 0.008,-0.078 0.031,-0.136 0.031,-0.218 l 9.559,-68.09 h 3.98 l 9.57,68.09 c 0,0.07 0.016,0.14 0.024,0.199 z M 639.602,968.707 c 21.179,-21.852 55.3,-39.769 99.347,-54.328 28.594,-9.457 48.535,-9.828 74.524,-31.481 26.101,-21.738 28.668,-45.718 36.757,-67.847 13.192,-36.063 21.434,-58.289 55.102,-91.942 32.949,-32.929 70.602,-47.738 97.908,-55.3 22.7,-6.289 61.27,-14.84 85.96,-37.95 22.62,-21.148 38.52,-68.781 35.39,-125.8 20.74,27.793 50.23,86.179 62.44,120.91 -2.62,28.761 -20.01,57.281 -38.66,76.922 -32.97,34.711 -85.4,43.211 -112.28,52.148 -21.76,7.231 -41.996,14.609 -65.918,38.531 -23.922,23.93 -31.231,44.391 -37.527,67.078 -7.563,27.313 -14.184,50.661 -54.383,90.875 -28.574,28.575 -85.485,43.457 -112.793,51.027 -22.699,6.3 -33.25,8.97 -57.172,32.9 -23.922,23.91 -29.945,41.26 -31.813,54.39 -0.976,6.42 -0.168,11.1 -0.41,15.48 l -91.48,0.01 0.054,-15.88 c 0,-5.73 0.7,-22.97 1.536,-27.52 5.648,-30.84 29.015,-67.067 53.418,-92.223 z M 558.629,826.219 V 1126.5 h 225.648 c 41.879,-37.47 73.676,-67.81 122.77,-93.09 48.906,24.97 84.816,56.3 122.333,93.09 H 1251.5 V 826.219 c 0,-110.539 -41.74,-212.34 -73.53,-276.297 -28.27,-56.891 -65.2,-101.102 -92.78,-131.16 C 1032.65,360.41 971.008,312.738 905.094,281.68 h -0.078 C 714.234,371.57 558.629,600.109 558.629,826.219"
         style="fill:#d2a715;fill-opacity:1;fill-rule:nonzero;stroke:none"
         transform="matrix(0.13333333,0,0,-0.13333333,0,256.70667)" />
      <path
         id="path54"
         d="m 1492.82,1297.8 v 0 c -7.47,5.4 -16.74,8.13 -26.48,8.65 -9.73,0.52 -20.43,-1.88 -28.9,-6.61 -17.02,-9.42 -29.23,-27.04 -32.45,-46.55 -2.66,-19.68 4.14,-38.73 16.81,-53.37 6.38,-7.23 14.83,-12.78 24.02,-15.43 9.19,-2.61 18.8,-2.49 27.46,-0.3 l 0.05,0.01 c 0.96,0.24 1.67,2.33 1.67,3.35 0,1.23 -1.34,2.7 -2.56,2.71 -8.51,0.03 -15.96,0.57 -23.11,3.91 -7.17,3.19 -12.06,8.26 -16.65,14.44 -4.55,6.21 -8.36,12.8 -10.19,20.38 -1.98,7.52 -1.51,14.32 -0.34,21.58 2.43,14.76 10.3,28.81 23.11,37.04 6.44,4.06 13.76,6.73 21.4,7.14 7.65,0.52 15.14,-0.52 22.61,-3.86 l 0.04,-0.01 c 1.5,-0.67 3.32,-0.22 4.32,1.17 1.16,1.59 0.78,4.61 -0.81,5.75 z m 2.05,-58.14 v 0 c 0,13.52 -10.95,24.47 -24.46,24.47 -13.53,0 -24.48,-10.95 -24.48,-24.47 0,-13.51 10.95,-24.47 24.48,-24.47 13.51,0 24.46,10.96 24.46,24.47 z m 33.58,-45.17 v 0 c -5.91,7.88 -9.91,17.91 -9.91,17.91 0,0 -3.99,-10.03 -9.9,-17.91 -5.91,-7.88 -10.77,-14.26 -10.77,-14.26 0,0 6.22,-4.05 11.1,-10.03 4.89,-5.98 9.57,-13.68 9.57,-13.68 0,0 4.7,7.7 9.59,13.68 4.87,5.98 11.09,10.03 11.09,10.03 0,0 -4.85,6.38 -10.77,14.26 z m 102.87,59.21 v 0 c -3.22,19.51 -15.43,36.63 -32.45,46.06 -8.48,4.74 -18.38,7.21 -28.12,6.69 -9.73,-0.52 -19.49,-3.25 -26.95,-8.65 -1.34,-0.96 -1.4,-3.56 -0.7,-5.12 0.8,-1.79 2.9,-2.6 4.69,-1.8 l 0.02,0.01 c 7.49,3.34 15.03,3.55 22.66,3.03 7.66,-0.4 14.24,-2.73 20.69,-6.79 12.8,-8.22 21.64,-21.66 24.07,-36.42 1.16,-7.26 1.04,-14.39 -0.93,-21.91 -1.82,-7.58 -5.32,-13.85 -9.87,-20.06 -4.61,-6.18 -10.74,-10.99 -17.91,-14.19 -7.14,-3.34 -13.7,-4.29 -22.22,-4.33 -0.97,0 -2.41,-1.51 -2.67,-2.51 -0.3,-1.18 0.95,-3.22 2.13,-3.51 l 0.06,-0.01 c 8.65,-2.19 18.26,-2.31 27.46,0.3 9.18,2.65 17.64,8.2 24.02,15.43 12.67,14.64 18.69,34.1 16.02,53.78 z m -89.09,-14.04 v 0 c 0,-13.51 10.95,-24.47 24.46,-24.47 13.52,0 24.48,10.96 24.48,24.47 0,13.52 -10.96,24.47 -24.48,24.47 -13.51,0 -24.46,-10.95 -24.46,-24.47 z m -19.87,-162.63 v 0 c 12.42,0 22.07,6.18 31.4,12.16 9.14,5.86 17.79,11.38 28.76,11.38 11.44,0 24.12,-6.54 36.38,-12.87 7.14,-3.7 4.66,-1.94 8.92,-3.93 v 56.51 c -4.37,2.55 -1.77,1.33 -6.7,3.88 -12.77,6.59 -25.97,13.42 -38.6,13.42 -12.41,0 -22.05,-6.18 -31.39,-12.15 -9.14,-5.86 -17.78,-11.39 -28.77,-11.39 -11.64,0 -24.21,6.95 -36.38,13.69 -11.5,6.36 -22.37,12.37 -32.13,12.37 -9.29,0 -18.61,-3.85 -28.46,-7.92 -7.44,-3.07 -9.04,-3.91 -16.17,-6.55 v -57.09 c 8.07,2.73 10.4,3.85 18.03,7.01 9.39,3.88 18.27,7.55 26.6,7.55 8.51,0 18.85,-5.71 29.78,-11.76 12.7,-7.03 25.84,-14.31 38.73,-14.31 z M 1360.93,952.453 v 0 c 0,-32.012 25.96,-57.984 57.99,-57.984 32.03,0 57.99,25.972 57.99,57.984 0,32.027 -25.96,57.987 -57.99,57.987 -32.03,0 -57.99,-25.96 -57.99,-57.987 z m 26.65,190.187 v 0 c -11.27,108.86 7.21,149.79 21.99,162.18 -15.86,30.27 -4.61,70.88 1.23,85.17 36.76,-5.89 47.22,-39.47 58.93,-59.64 20.06,10.09 74.35,10.09 100.26,2.52 13.37,31.95 34.33,58.61 53.55,61.98 15.87,-39.52 9.95,-77.41 2.42,-88.34 35.4,-36.28 28.1,-140.38 24.36,-173.93 -0.07,-3.4 0.49,-8.13 0.4,-8.12 v -47.82 c 2.62,-1.15 5.24,-1.25 5.24,-1.19 6.67,-4.56 12.54,-9.9 17.73,-15.79 -4.43,0.49 -9.67,0.7 -16.11,0.7 -8.35,0 -18.93,-0.32 -32.33,-0.73 -14.55,-0.44 -32.67,-0.99 -55.37,-1.36 -25.76,-0.42 -45.7,-10.91 -54.78,-26.82 -22.57,-39.528 14.04,-98.505 21.79,-112.348 17.13,-30.543 145.85,-257.793 223.61,-343.43 20.79,-54.442 30.47,-81.082 32.09,-87.113 4.85,-18.098 -82.67,-64.571 -99.31,-52.969 -7.16,4.992 -45.44,69.14 -86.74,140.648 2.96,-34.367 -5.26,-67.218 -12.4,-72.078 -12.13,-34 -28.08,-86.969 -23.6,-99.73 5.67,-16.192 31.6,-11.348 31.6,-11.348 25.94,-7.293 11.05,-64.281 11.05,-64.281 0,14.578 -20.06,26.14 -20.06,26.14 -5.67,-8.921 -28.36,5.469 -28.36,5.469 -5.68,-0.808 -23.51,1.621 -25.94,1.621 -1.62,-4.851 -16.18,-8.722 -25.11,-8.722 -6.47,-13.77 -25.93,-8.911 -25.93,-8.911 -8.09,0 -17.84,-16.218 -22.69,-25.128 -2.1,9.089 -4.16,22.351 -2.11,31.039 1.61,4.402 4.21,8.711 7.11,12.41 2.14,2.562 10.95,9.402 6.9,8.953 -4.4,-0.902 -18.38,-7.82 -18.38,-7.82 -9.73,-4.872 -19.45,-20.274 -21.08,-26.75 -1.62,25.117 14.51,62.476 20.18,62.476 5.69,0 23.58,-5.668 38.18,-5.668 14.58,0 20.25,9.719 30.79,17.82 10.54,8.11 12.56,61.25 12.56,70.989 l -2.37,13.57 c -2.91,0.731 -5.32,4.039 -5.32,12.223 0,15.976 -16.83,52.047 -30.64,97.129 -9.88,32.269 -21.5,86.699 -28.72,101.859 -4.72,9.879 -16.8,13.172 -25.32,18.801 -9.12,6.07 -17.09,12.168 -25.76,20.59 -19.4,18.859 -41.43,54.097 -53.49,77.808 -25.08,49.313 -31.77,74.66 -33.72,80.211 -3.53,11.738 -9.69,30.977 -12.66,52.442 -3.03,22 -2.67,39.464 1.56,58.858 4.04,18.48 11.61,29.08 22.01,39.48 12.47,12.47 27.46,20.93 41.96,27.02 l 0.8,59.93"
         style="fill:#d2a715;fill-opacity:1;fill-rule:nonzero;stroke:none"
         transform="matrix(0.13333333,0,0,-0.13333333,0,256.70667)" />
      <path
         id="path55"
         d="m 253.363,1239.66 v 0 c 0,-5.54 -4.492,-10.02 -10.023,-10.02 -5.531,0 -10.024,4.48 -10.024,10.02 0,5.54 4.493,10.02 10.024,10.02 5.531,0 10.023,-4.48 10.023,-10.02"
         style="fill:#d2a715;fill-opacity:1;fill-rule:nonzero;stroke:none"
         transform="matrix(0.13333333,0,0,-0.13333333,0,256.70667)" />
      <path
         id="path56"
         d="m 339.633,1229.64 v 0 c -5.535,0 -10.02,4.48 -10.02,10.02 0,5.54 4.485,10.02 10.02,10.02 5.535,0 10.031,-4.48 10.031,-10.02 0,-5.54 -4.496,-10.02 -10.031,-10.02"
         style="fill:#d2a715;fill-opacity:1;fill-rule:nonzero;stroke:none"
         transform="matrix(0.13333333,0,0,-0.13333333,0,256.70667)" />
      <path
         id="path57"
         d="m 1556.67,1239.66 v 0 c 0,-5.54 4.5,-10.02 10.02,-10.02 5.54,0 10.03,4.48 10.03,10.02 0,5.54 -4.49,10.02 -10.03,10.02 -5.52,0 -10.02,-4.48 -10.02,-10.02"
         style="fill:#d2a715;fill-opacity:1;fill-rule:nonzero;stroke:none"
         transform="matrix(0.13333333,0,0,-0.13333333,0,256.70667)" />
      <path
         id="path58"
         d="m 1470.41,1229.64 v 0 c 5.53,0 10.01,4.48 10.01,10.02 0,5.54 -4.48,10.02 -10.01,10.02 -5.54,0 -10.04,-4.48 -10.04,-10.02 0,-5.54 4.5,-10.02 10.04,-10.02"
         style="fill:#d2a715;fill-opacity:1;fill-rule:nonzero;stroke:none"
         transform="matrix(0.13333333,0,0,-0.13333333,0,256.70667)" />
      <path
         id="path59"
         d="m 1044.2,1418.3 -104.466,-23.1 v -42.61 l 103.766,34.44 z m -126.993,112.55 v 0 c 24.246,-2.26 85.493,-8.65 123.283,-28.98 19.05,-30.57 46.33,-81.08 9.32,-235.46 -14.42,-12.08 -87.705,-70.4 -132.603,-94.97 0,10.82 0.059,346.87 0,359.41"
         style="fill:#d2a715;fill-opacity:1;fill-rule:nonzero;stroke:none"
         transform="matrix(0.13333333,0,0,-0.13333333,0,256.70667)" />
      <path
         id="path60"
         d="m 771.914,1387.14 103.75,-34.53 0.027,42.61 -104.457,23.17 z m 126.117,-215.7 v 0 c -44.879,24.61 -118.109,82.99 -132.519,95.08 -36.879,154.41 -9.567,204.9 9.504,235.45 37.816,20.3 99.054,26.64 123.304,28.88 -0.066,-12.54 -0.277,-348.59 -0.289,-359.41"
         style="fill:#d2a715;fill-opacity:1;fill-rule:nonzero;stroke:none"
         transform="matrix(0.13333333,0,0,-0.13333333,0,256.70667)" />
      <path
         id="path61"
         d="m 724.527,1206.19 v 0 c 12.868,-22.44 24.286,-37.84 46.586,-63.15 l -45.066,0.01 c -3.895,25.31 -2.817,49.25 -1.52,63.14"
         style="fill:#d2a715;fill-opacity:1;fill-rule:nonzero;stroke:none"
         transform="matrix(0.13333333,0,0,-0.13333333,0,256.70667)" />
      <path
         id="path62"
         d="m 549.988,196.449 c 4.192,8.231 1.008,15.039 -9.558,20.41 -2.578,1.313 -5.239,2.352 -7.989,3.129 l -13.207,-25.957 c 2.079,-1.472 4.403,-2.859 6.981,-4.172 4.824,-2.449 9.394,-3.16 13.703,-2.109 4.301,1.059 7.656,3.961 10.07,8.699 z m 15.973,-8.758 C 561.52,178.949 554.82,173.73 545.875,172 c -8.273,-1.66 -16.949,-0.18 -26.016,4.43 -2.16,1.109 -4.589,2.601 -7.293,4.5 l -17.078,-33.559 -15.601,7.93 42.922,84.347 c 7.711,-1.929 15.937,-5.117 24.668,-9.566 9.07,-4.613 15.39,-10.402 18.972,-17.344 4.074,-8.047 3.918,-16.398 -0.488,-25.047"
         style="fill:#d2a715;fill-opacity:1;fill-rule:nonzero;stroke:none"
         transform="matrix(0.13333333,0,0,-0.13333333,0,256.70667)" />
      <path
         id="path63"
         d="m 613.793,93.7695 -53.25,20.6405 34.598,89.289 52.089,-20.179 -5.468,-14.098 -35.762,13.859 -8.504,-21.929 29.891,-11.59 -5.254,-13.582 -29.891,11.59 -9.922,-25.579 36.942,-14.32 -5.469,-14.1015"
         style="fill:#d2a715;fill-opacity:1;fill-rule:nonzero;stroke:none"
         transform="matrix(0.13333333,0,0,-0.13333333,0,256.70667)" />
      <path
         id="path64"
         d="m 700.961,137.91 c 2.547,8.871 -2.098,15.02 -13.945,18.399 -2.606,0.761 -5.328,1.242 -8.172,1.472 l -7.942,-27.722 c 2.317,-1.047 4.778,-1.95 7.383,-2.7 5.289,-1.507 9.922,-1.437 13.903,0.243 4.41,1.839 7.332,5.277 8.773,10.308 z m 7.531,-73.3709 -19.918,5.6992 -9.883,36.1837 c -0.91,3.269 -1.851,5.719 -2.836,7.367 -0.273,0.07 -0.722,0.199 -1.347,0.391 -0.656,0.082 -1.164,0.179 -1.524,0.281 0.274,-0.082 -1.711,0.641 -5.937,2.141 l -10.641,-37.1411 -16.828,4.8086 25.988,90.7185 c 9.243,-0.609 17.497,-1.957 24.77,-4.047 24.133,-6.902 33.516,-19.742 28.144,-38.48 -1.726,-6.02 -5.195,-10.852 -10.414,-14.5 -5.222,-3.66 -10.707,-5.18 -16.461,-4.602 l -0.078,-0.269 c 1.946,-0.66 3.762,-3.809 5.45,-9.43 l 11.515,-39.1209"
         style="fill:#d2a715;fill-opacity:1;fill-rule:nonzero;stroke:none"
         transform="matrix(0.13333333,0,0,-0.13333333,0,256.70667)" />
      <path
         id="path65"
         d="m 747.035,57.5508 -17.234,3.039 16.59,94.3012 17.238,-3.02 -16.594,-94.3202"
         style="fill:#d2a715;fill-opacity:1;fill-rule:nonzero;stroke:none"
         transform="matrix(0.13333333,0,0,-0.13333333,0,256.70667)" />
      <path
         id="path66"
         d="m 853.992,125.262 -29.804,3.058 -8.247,-80.2184 -17.406,1.789 8.242,80.2184 -27.988,2.871 1.543,15.051 75.203,-7.73 -1.543,-15.039"
         style="fill:#d2a715;fill-opacity:1;fill-rule:nonzero;stroke:none"
         transform="matrix(0.13333333,0,0,-0.13333333,0,256.70667)" />
      <path
         id="path67"
         d="m 886.184,43.5703 -17.493,0.6211 3.379,95.6996 17.493,-0.621 -3.379,-95.6997"
         style="fill:#d2a715;fill-opacity:1;fill-rule:nonzero;stroke:none"
         transform="matrix(0.13333333,0,0,-0.13333333,0,256.70667)" />
      <path
         id="path68"
         d="M 966.328,85.1602 951.582,116.57 941.328,83.4688 Z m 37.442,-37.0508 -19.559,-1.3203 -11.137,23.6718 -36.875,-2.4921 -7.871,-24.7969 -18.711,-1.4024 33.098,98.1995 16.621,1.121 44.434,-92.9806"
         style="fill:#d2a715;fill-opacity:1;fill-rule:nonzero;stroke:none"
         transform="matrix(0.13333333,0,0,-0.13333333,0,256.70667)" />
      <path
         id="path69"
         d="m 1102.99,136.551 c -1.92,9.031 -8.9,12.269 -20.95,9.699 -2.65,-0.57 -5.29,-1.41 -7.9,-2.539 l 6,-28.199 c 2.54,0.148 5.14,0.508 7.78,1.078 5.39,1.148 9.44,3.39 12.17,6.738 3.02,3.692 4,8.102 2.9,13.223 z m 41.11,-61.2502 -20.27,-4.3125 -25.71,27.3008 c -2.33,2.4609 -4.33,4.1799 -5.97,5.1719 -0.27,-0.063 -0.73,-0.152 -1.36,-0.289 -0.63,-0.231 -1.13,-0.391 -1.49,-0.461 0.28,0.051 -1.8,-0.242 -6.24,-0.902 l 8.05,-37.7973 -17.12,-3.6406 -19.66,92.2889 c 8.45,3.801 16.37,6.488 23.77,8.07 24.55,5.231 38.86,-1.699 42.92,-20.769 1.31,-6.121 0.51,-12.012 -2.38,-17.691 -2.9,-5.68 -7.02,-9.598 -12.38,-11.801 l 0.06,-0.27 c 2.02,0.332 5.1,-1.59 9.24,-5.769 l 28.54,-29.1292"
         style="fill:#d2a715;fill-opacity:1;fill-rule:nonzero;stroke:none"
         transform="matrix(0.13333333,0,0,-0.13333333,0,256.70667)" />
      <path
         id="path70"
         d="m 1199.6,137.32 -22.43,26.489 -1.27,-34.629 z m 45.8,-26.011 -18.54,-6.368 -16.91,19.95 -34.95,-12.012 -1.14,-26.0001 -17.7,-6.2383 6.35,103.4494 15.76,5.41 67.13,-78.191"
         style="fill:#d2a715;fill-opacity:1;fill-rule:nonzero;stroke:none"
         transform="matrix(0.13333333,0,0,-0.13333333,0,256.70667)" />
      <path
         id="path71"
         d="m 1286.73,222.012 -27.15,-12.68 34.13,-73.062 -15.86,-7.411 -34.12,73.071 -25.5,-11.899 -6.4,13.699 68.51,31.981 6.39,-13.699"
         style="fill:#d2a715;fill-opacity:1;fill-rule:nonzero;stroke:none"
         transform="matrix(0.13333333,0,0,-0.13333333,0,256.70667)" />
      <path
         id="path72"
         d="m 1356.18,168.488 -15.45,-8.226 -45.05,84.5 15.45,8.226 45.05,-84.5"
         style="fill:#d2a715;fill-opacity:1;fill-rule:nonzero;stroke:none"
         transform="matrix(0.13333333,0,0,-0.13333333,0,256.70667)" />
      <path
         id="path73"
         d="m 1418.87,260.898 c -4.81,8.321 -10.5,14.141 -17.06,17.473 -7.63,3.879 -15.37,3.551 -23.21,-0.98 -7.83,-4.532 -11.97,-11.082 -12.41,-19.629 -0.32,-7.301 1.94,-15.114 6.74,-23.43 4.73,-8.16 10.37,-13.902 16.93,-17.223 7.71,-3.839 15.41,-3.539 23.08,0.903 7.77,4.488 11.86,11.008 12.3,19.558 0.48,7.391 -1.65,15.168 -6.37,23.328 z m 16.24,9.391 c 7.2,-12.437 9.64,-24.5 7.35,-36.18 -2.35,-12.359 -9.66,-22.089 -21.95,-29.187 -12.28,-7.102 -24.29,-8.613 -36.03,-4.512 -11.32,3.91 -20.58,12.09 -27.78,24.531 -7.29,12.598 -9.87,24.688 -7.72,36.289 2.33,12.348 9.69,22.098 22.05,29.25 12.44,7.192 24.6,8.731 36.48,4.602 11.11,-3.934 20.31,-12.184 27.6,-24.793"
         style="fill:#d2a715;fill-opacity:1;fill-rule:nonzero;stroke:none"
         transform="matrix(0.13333333,0,0,-0.13333333,0,256.70667)" />
      <path
         id="path74"
         d="m 415.684,192.98 -49.454,28.59 47.915,82.91 48.367,-27.949 -7.567,-13.09 -33.211,19.188 -11.773,-20.367 27.758,-16.032 -7.285,-12.609 -27.758,16.039 -13.727,-23.762 34.305,-19.82 -7.57,-13.098"
         style="fill:#d2a715;fill-opacity:1;fill-rule:nonzero;stroke:none"
         transform="matrix(0.13333333,0,0,-0.13333333,0,256.70667)" />
      <path
         id="path75"
         d="m 2061.91,1528.1 h -20 V 122.398 h 20 V 1528.1"
         style="fill:#0a264a;fill-opacity:1;fill-rule:nonzero;stroke:none"
         transform="matrix(0.13333333,0,0,-0.13333333,0,256.70667)" />
    </g>
  </g>
</svg>
